<svg width="260" height="83" viewBox="0 0 260 83" fill="none" xmlns="http://www.w3.org/2000/svg">
<path d="M39.0775 24.7869V21.5944C28.8245 21.6036 26.6222 21.8997 20.0058 29.6265C19.941 29.7005 19.8856 29.7746 19.8207 29.8486C19.7559 29.7746 19.7004 29.7005 19.6357 29.6265C13.0101 21.8998 10.817 21.6036 0.554688 21.5944V24.7869C10.1415 24.7869 11.4277 24.8516 17.6 32.1712L17.7387 32.3378C17.6831 32.3933 17.6462 32.4488 17.6091 32.4859C11.7887 39.389 10.234 39.8424 2.06314 39.8702L0.554688 39.8795V43.0535C1.18398 43.0535 1.77623 43.0534 2.34068 43.0627C10.3358 43.0904 11.8349 43.5994 17.6 50.4378C17.6276 50.4749 17.6738 50.5304 17.7387 50.5951C17.6924 50.6507 17.6462 50.7062 17.6091 50.7432C11.7887 57.6464 10.234 58.1091 2.06314 58.1275L0.554688 58.1368V61.32H2.06314C7.41175 61.2923 10.2525 61.0239 12.9176 59.5156C14.8423 58.4329 16.7301 56.684 19.6357 53.2879C19.6912 53.2231 19.7559 53.1491 19.8207 53.0751C19.8948 53.1676 19.9596 53.2417 20.0058 53.2972C22.9115 56.6933 24.7992 58.4329 26.7239 59.5156C29.389 61.0239 32.2298 61.2923 37.5783 61.3293L39.0775 61.32V58.1461L37.5783 58.1368C29.4074 58.1091 27.8435 57.6556 22.0324 50.7525L21.9028 50.5952C21.9491 50.5396 21.9954 50.4841 22.0416 50.4286C27.7973 43.5902 29.3057 43.0812 37.3008 43.0535H37.5783L39.0775 43.0442V39.8795H37.5783C29.4075 39.8517 27.8435 39.389 22.0324 32.4859C21.9954 32.4488 21.9584 32.3933 21.9028 32.3378C21.9491 32.2823 21.9954 32.2267 22.0416 32.1712C28.2046 24.8516 29.5 24.7869 39.0775 24.7869ZM26.7239 41.249C26.8536 41.323 26.9923 41.3971 27.1218 41.4618C24.901 42.6 22.8652 44.5525 20.0058 47.8931C19.941 47.9671 19.8763 48.0411 19.8207 48.1151L19.6357 47.8931C16.767 44.5525 14.7313 42.6 12.5105 41.4618C12.6492 41.3971 12.7788 41.323 12.9176 41.249C14.8423 40.1663 16.7301 38.4267 19.6357 35.0306C19.6912 34.9658 19.7559 34.8918 19.8207 34.8177C19.8856 34.8918 19.9503 34.9658 20.0058 35.0306C22.9115 38.4267 24.7992 40.1663 26.7239 41.249Z" fill="#202334"/>
<path d="M70.6425 25.9164C70.3095 25.2964 69.8561 24.8152 69.273 24.4914C68.6994 24.1582 68.033 23.9916 67.2743 23.9916C66.5247 23.9916 65.8492 24.1582 65.2662 24.4914C64.6833 24.8152 64.2298 25.2964 63.8967 25.9164C63.5636 26.5364 63.4062 27.2767 63.4062 28.1373C63.4062 28.9979 63.5636 29.7381 63.8967 30.3581C64.2298 30.9782 64.6833 31.4593 65.2662 31.7832C65.8492 32.1163 66.5247 32.2829 67.2743 32.2829C68.033 32.2829 68.6994 32.1163 69.273 31.7832C69.8561 31.4593 70.3095 30.9782 70.6425 30.3581C70.9757 29.7381 71.1515 28.9979 71.1515 28.1373C71.1515 27.2767 70.9757 26.5364 70.6425 25.9164ZM69.1621 29.6548C68.9862 30.0805 68.7363 30.3952 68.4217 30.6172C68.107 30.8301 67.7185 30.9411 67.2743 30.9411C66.8301 30.9411 66.4507 30.8301 66.1269 30.6172C65.8122 30.3952 65.5623 30.0805 65.3865 29.6641C65.2108 29.2569 65.1274 28.7387 65.1274 28.1373C65.1274 27.5358 65.2108 27.0176 65.3865 26.6104C65.5623 26.194 65.8122 25.8794 66.1269 25.6573C66.4507 25.4445 66.8301 25.3334 67.2743 25.3334C67.7185 25.3334 68.107 25.4445 68.4217 25.6573C68.7363 25.8794 68.9862 26.194 69.1621 26.6104C69.3378 27.0176 69.4304 27.5358 69.4304 28.1373C69.4304 28.7295 69.3378 29.2385 69.1621 29.6548ZM85.5502 25.2872C85.2818 24.8522 84.9394 24.5284 84.5044 24.3155C84.0788 24.1027 83.6068 23.9916 83.0979 23.9916C82.737 23.9916 82.3761 24.0564 82.0152 24.1767C81.6544 24.297 81.3305 24.4821 81.0343 24.7227C80.7383 24.954 80.5162 25.2594 80.3588 25.6203C80.1367 25.0743 79.7852 24.6764 79.3133 24.3988C78.8413 24.1305 78.3138 23.9916 77.7401 23.9916C77.2034 23.9916 76.6944 24.1305 76.2317 24.3895C75.7598 24.6579 75.399 25.0558 75.1306 25.574L75.0473 24.1582H73.539V32.1256H75.2601V27.8504C75.2601 27.2767 75.362 26.814 75.5655 26.4439C75.7598 26.083 76.0189 25.8239 76.3336 25.6481C76.6481 25.4815 76.9535 25.3982 77.2682 25.3982C77.7217 25.3982 78.1102 25.537 78.4249 25.8239C78.7302 26.1107 78.8876 26.5827 78.8876 27.2304V32.1256H80.6087V27.7578C80.6087 27.2582 80.7013 26.8325 80.8863 26.4716C81.0621 26.12 81.3119 25.8516 81.6174 25.6665C81.9227 25.4907 82.2558 25.3982 82.6167 25.3982C83.0794 25.3982 83.4588 25.537 83.7642 25.8239C84.0788 26.1107 84.2269 26.5827 84.2269 27.2304V32.1256H85.948V26.9435C85.948 26.2773 85.8186 25.7221 85.5502 25.2872ZM95.9605 25.9071C95.6735 25.2872 95.2757 24.8152 94.7575 24.4914C94.2485 24.1582 93.6749 23.9916 93.0456 23.9916C92.333 23.9916 91.7222 24.2045 91.2132 24.6117C90.8525 24.917 90.5748 25.2872 90.3898 25.7221L90.3157 24.1582H88.7889V35.4661H90.5101V30.7468C90.7044 31.1169 90.9635 31.4501 91.2966 31.7184C91.7593 32.0886 92.3238 32.2829 92.9901 32.2829C93.6378 32.2829 94.2207 32.1163 94.7389 31.7832C95.2572 31.4593 95.655 30.9782 95.9605 30.3581C96.2565 29.7382 96.4046 28.9886 96.4046 28.1188C96.4046 27.2582 96.2565 26.5272 95.9605 25.9071ZM94.119 30.173C93.7396 30.6635 93.2307 30.9134 92.5829 30.9134C92.1571 30.9134 91.7871 30.7931 91.4816 30.571C91.167 30.3397 90.9357 30.0157 90.7598 29.5993C90.5933 29.1922 90.5101 28.7018 90.5101 28.1373C90.5101 27.5636 90.5933 27.0731 90.7691 26.6567C90.945 26.2403 91.1948 25.9257 91.5094 25.7036C91.8334 25.4723 92.1942 25.3612 92.6105 25.3612C93.2584 25.3612 93.7672 25.611 94.1283 26.1015C94.4983 26.5827 94.6833 27.2675 94.6833 28.1373C94.6833 29.0071 94.4891 29.6919 94.119 30.173ZM105.288 25.7868C105.001 25.2317 104.594 24.7875 104.067 24.4728C103.539 24.1582 102.891 23.9916 102.142 23.9916C101.411 23.9916 100.754 24.1582 100.171 24.4914C99.5971 24.8152 99.1436 25.2872 98.8198 25.9071C98.4959 26.5272 98.3293 27.2674 98.3293 28.1373C98.3293 28.9979 98.4959 29.7381 98.8291 30.3581C99.1529 30.9781 99.6156 31.4593 100.199 31.7832C100.782 32.1163 101.457 32.2829 102.234 32.2829C102.753 32.2829 103.234 32.2088 103.669 32.0608C104.104 31.9127 104.483 31.6906 104.807 31.4038C105.131 31.1169 105.381 30.7745 105.566 30.3859L104.196 29.7751C104.011 30.136 103.761 30.4229 103.447 30.6357C103.132 30.8393 102.725 30.9411 102.234 30.9411C101.781 30.9411 101.383 30.8393 101.041 30.6265C100.698 30.4136 100.439 30.099 100.263 29.6826C100.125 29.368 100.032 28.9978 100.004 28.5814H105.658C105.667 28.4796 105.686 28.3501 105.695 28.2021C105.705 28.054 105.705 27.8874 105.705 27.7116C105.705 26.9806 105.566 26.3421 105.288 25.7868ZM100.041 27.4062C100.078 27.1101 100.143 26.851 100.245 26.6197C100.411 26.194 100.661 25.8794 100.985 25.6573C101.309 25.4445 101.698 25.3334 102.142 25.3334C102.53 25.3334 102.873 25.426 103.16 25.6018C103.447 25.7869 103.669 26.046 103.817 26.3884C103.946 26.6752 104.02 27.0176 104.039 27.4062H100.041ZM121.075 25.7868C120.797 25.2317 120.39 24.7875 119.862 24.4728C119.326 24.1582 118.687 23.9916 117.928 23.9916C117.197 23.9916 116.54 24.1582 115.967 24.4914C115.384 24.8152 114.93 25.2872 114.606 25.9071C114.283 26.5272 114.125 27.2674 114.125 28.1373C114.125 28.9979 114.283 29.7381 114.616 30.3581C114.949 30.9781 115.402 31.4593 115.985 31.7832C116.568 32.1163 117.253 32.2829 118.03 32.2829C118.548 32.2829 119.02 32.2088 119.465 32.0608C119.899 31.9127 120.279 31.6906 120.603 31.4038C120.927 31.1169 121.177 30.7745 121.352 30.3859L119.983 29.7751C119.807 30.136 119.557 30.4229 119.233 30.6357C118.919 30.8393 118.511 30.9411 118.03 30.9411C117.568 30.9411 117.17 30.8393 116.827 30.6265C116.494 30.4136 116.235 30.099 116.05 29.6826C115.911 29.368 115.828 28.9978 115.8 28.5814H121.454C121.463 28.4796 121.473 28.3501 121.482 28.2021C121.491 28.054 121.5 27.8874 121.5 27.7116C121.5 26.9806 121.362 26.3421 121.075 25.7868ZM115.837 27.4062C115.874 27.1101 115.939 26.851 116.031 26.6197C116.207 26.194 116.448 25.8794 116.772 25.6573C117.096 25.4445 117.484 25.3334 117.928 25.3334C118.326 25.3334 118.66 25.426 118.946 25.6018C119.233 25.7869 119.455 26.046 119.613 26.3884C119.742 26.6752 119.816 27.0176 119.835 27.4062H115.837ZM130.615 25.2964C130.356 24.8615 130.023 24.5376 129.597 24.3248C129.172 24.1027 128.69 23.9916 128.145 23.9916C127.46 23.9916 126.867 24.1675 126.359 24.5098C125.979 24.769 125.683 25.1391 125.479 25.6018L125.405 24.1582H123.888V32.1256H125.609V27.8504C125.609 27.2674 125.711 26.7955 125.905 26.4346C126.099 26.0737 126.359 25.8054 126.673 25.6481C126.988 25.4815 127.302 25.3982 127.636 25.3982C128.098 25.3982 128.496 25.5555 128.801 25.8609C129.116 26.1663 129.273 26.6937 129.273 27.4525V32.1256H130.995V26.9435C130.995 26.2866 130.865 25.7406 130.615 25.2964ZM136.602 30.8023L135.186 30.8301L136.093 29.8399L139.776 25.3149V24.1582H133.289V25.4723H136.593L137.861 25.4445L136.991 26.3884L133.271 30.9596V32.1256H139.915V30.8023H136.602ZM147.281 24.1582L145.079 30.6913L142.932 24.1582H141.062L144.107 32.1256H146.041L149.085 24.1582H147.281ZM157.266 25.7868C156.979 25.2317 156.581 24.7875 156.044 24.4728C155.517 24.1582 154.869 23.9916 154.119 23.9916C153.388 23.9916 152.731 24.1582 152.148 24.4914C151.565 24.8152 151.121 25.2872 150.797 25.9071C150.473 26.5272 150.307 27.2674 150.307 28.1373C150.307 28.9979 150.473 29.7381 150.807 30.3581C151.13 30.9781 151.593 31.4593 152.176 31.7832C152.759 32.1163 153.435 32.2829 154.212 32.2829C154.73 32.2829 155.211 32.2088 155.646 32.0608C156.081 31.9127 156.46 31.6906 156.784 31.4038C157.108 31.1169 157.358 30.7745 157.543 30.3859L156.174 29.7751C155.988 30.136 155.739 30.4229 155.424 30.6357C155.109 30.8393 154.702 30.9411 154.212 30.9411C153.758 30.9411 153.361 30.8393 153.018 30.6265C152.676 30.4136 152.417 30.099 152.241 29.6826C152.102 29.368 152.009 28.9978 151.982 28.5814H157.636C157.645 28.4796 157.663 28.3501 157.673 28.2021C157.682 28.054 157.682 27.8874 157.682 27.7116C157.682 26.9806 157.543 26.3421 157.266 25.7868ZM152.019 27.4062C152.056 27.1101 152.121 26.851 152.222 26.6197C152.389 26.194 152.639 25.8794 152.963 25.6573C153.286 25.4445 153.675 25.3334 154.119 25.3334C154.508 25.3334 154.85 25.426 155.137 25.6018C155.424 25.7869 155.646 26.046 155.794 26.3884C155.924 26.6752 155.998 27.0176 156.016 27.4062H152.019ZM164.502 24.038C164.354 24.0102 164.196 23.9916 164.03 23.9916C163.456 23.9916 162.966 24.1397 162.568 24.4359C162.17 24.7227 161.874 25.1391 161.689 25.6665L161.559 24.1582H160.079V32.1256H161.8V27.8967C161.8 27.3785 161.892 26.9435 162.077 26.5827C162.262 26.2311 162.503 25.9627 162.799 25.7776C163.095 25.6018 163.401 25.5092 163.706 25.5092C163.956 25.5092 164.15 25.5185 164.289 25.5462C164.437 25.574 164.557 25.611 164.65 25.6481L164.872 24.186C164.77 24.1119 164.641 24.0564 164.502 24.038ZM173.904 25.9071C173.607 25.2872 173.209 24.8152 172.701 24.4914C172.201 24.1582 171.636 23.9916 171.007 23.9916C170.313 23.9916 169.739 24.1767 169.258 24.5562C168.916 24.8245 168.638 25.1483 168.453 25.537V20.6049H166.741V32.1256H168.231L168.305 30.46C168.49 30.9318 168.768 31.3205 169.156 31.6536C169.656 32.0701 170.258 32.2829 170.961 32.2829C171.609 32.2829 172.182 32.1163 172.701 31.7832C173.21 31.4593 173.607 30.9874 173.904 30.3674C174.209 29.7567 174.357 29.0163 174.357 28.1558C174.357 27.2675 174.209 26.5272 173.904 25.9071ZM172.071 30.173C171.701 30.6635 171.192 30.9134 170.526 30.9134C170.128 30.9134 169.767 30.8023 169.443 30.571C169.129 30.3489 168.879 30.0343 168.712 29.6271C168.546 29.2199 168.453 28.7295 168.453 28.165C168.453 27.5913 168.546 27.1009 168.712 26.6845C168.879 26.2773 169.129 25.9534 169.434 25.7129C169.749 25.4815 170.119 25.3612 170.544 25.3612C171.201 25.3612 171.72 25.611 172.081 26.1015C172.451 26.5827 172.636 27.2675 172.636 28.1373C172.636 29.0071 172.451 29.6919 172.071 30.173ZM182.047 24.1582V28.5074C182.047 28.8961 182 29.2477 181.889 29.5438C181.788 29.8492 181.64 30.0991 181.454 30.2933C181.269 30.497 181.057 30.6357 180.825 30.7376C180.585 30.8301 180.344 30.8763 180.076 30.8763C179.502 30.8763 179.086 30.7283 178.826 30.4136C178.567 30.1083 178.428 29.6364 178.428 28.9979V24.1582H176.707V29.4328C176.707 30.0991 176.837 30.645 177.087 31.0707C177.337 31.4964 177.67 31.8017 178.086 31.996C178.493 32.1811 178.965 32.2829 179.483 32.2829C179.909 32.2829 180.288 32.2274 180.631 32.1163C180.973 32.0053 181.269 31.8295 181.528 31.5981C181.797 31.3575 182.01 31.0707 182.176 30.7376L182.241 32.1256H183.768V24.1582H182.047ZM193.382 25.2964C193.123 24.8615 192.781 24.5376 192.355 24.3248C191.939 24.1027 191.448 23.9916 190.912 23.9916C190.227 23.9916 189.635 24.1675 189.126 24.5098C188.746 24.769 188.45 25.1299 188.247 25.5833L188.173 24.1582H186.655V32.1256H188.376V27.8504C188.376 27.2675 188.478 26.7955 188.672 26.4346C188.867 26.0737 189.126 25.8054 189.431 25.6481C189.746 25.4815 190.07 25.3982 190.403 25.3982C190.865 25.3982 191.254 25.5555 191.569 25.8609C191.883 26.1663 192.041 26.6937 192.041 27.4525V32.1256H193.762V26.9435C193.762 26.2866 193.632 25.7406 193.382 25.2964ZM201.997 20.6049V25.537C201.831 25.1576 201.59 24.843 201.276 24.5746C200.813 24.186 200.239 23.9916 199.564 23.9916C198.925 23.9916 198.342 24.1582 197.815 24.4821C197.287 24.806 196.871 25.2779 196.566 25.8887C196.26 26.5087 196.103 27.2582 196.103 28.1558C196.103 29.0164 196.251 29.7567 196.547 30.3674C196.843 30.9874 197.25 31.4593 197.759 31.7832C198.268 32.1163 198.842 32.2829 199.48 32.2829C199.952 32.2829 200.378 32.1811 200.776 31.996C201.165 31.8017 201.498 31.5334 201.766 31.1725C201.905 30.9966 202.016 30.8023 202.099 30.5802L202.192 32.1256H203.719V20.6049L201.997 20.6049ZM201.738 29.5901C201.562 30.0158 201.313 30.3397 201.007 30.571C200.693 30.7931 200.323 30.9134 199.915 30.9134C199.268 30.9134 198.759 30.6635 198.379 30.1731C198.009 29.6919 197.824 29.0071 197.824 28.1373C197.824 27.2675 198.009 26.5827 198.389 26.1015C198.768 25.611 199.286 25.3612 199.962 25.3612C200.36 25.3612 200.72 25.4723 201.026 25.6851C201.331 25.8979 201.572 26.2033 201.748 26.6104C201.914 27.0083 201.997 27.4988 201.997 28.054C201.997 28.6555 201.914 29.1644 201.738 29.5901Z" fill="#202334"/>
<path d="M112.812 31.6074C112.571 31.8202 112.275 31.9868 111.942 32.1071C111.599 32.2181 111.229 32.2829 110.822 32.2829C110.119 32.2829 109.545 32.1071 109.082 31.7555C108.62 31.4038 108.388 30.8116 108.388 29.988V25.4908H106.936V24.1582H108.388V22.2705L110.11 21.7986V24.1582H112.691V25.4908H110.11V29.7012C110.11 30.0991 110.211 30.4044 110.406 30.5988C110.609 30.7931 110.877 30.8949 111.22 30.8949C111.498 30.8949 111.738 30.8486 111.933 30.7561C112.127 30.6728 112.303 30.5525 112.469 30.4044L112.812 31.6074Z" fill="#202334"/>
<path d="M62.6575 32.1256H60.6494L57.5217 27.0454L55.9116 28.8683V32.1256H54.1904V21.6042H55.9116V26.8418L60.4828 21.6042H62.5556L58.7618 25.8887L62.6575 32.1256Z" fill="#202334"/>
<path d="M212.196 60.3901C211.737 60.7846 211.187 61.0966 210.544 61.3168C209.911 61.537 209.205 61.6471 208.452 61.6471C207.131 61.6471 206.039 61.3168 205.177 60.6561C204.305 60.0047 203.874 58.8944 203.874 57.3345V48.8928H201.148V46.3787H203.874V42.8552L207.103 41.9559V46.3787H211.948V48.8928H207.103V56.8023C207.103 57.5547 207.296 58.1236 207.672 58.4907C208.049 58.8577 208.563 59.0412 209.196 59.0412C209.719 59.0412 210.159 58.9586 210.535 58.7843C210.902 58.6191 211.233 58.3989 211.535 58.1145L212.196 60.3901Z" fill="#202334"/>
<path d="M59.7365 59.0595C59.5163 59.1054 59.2502 59.1329 58.9291 59.1329C58.351 59.1329 57.9565 58.9678 57.7455 58.6283C57.5344 58.2888 57.4334 57.7749 57.4334 57.0959V39.7079H54.1943V57.3987C54.1943 58.6925 54.4605 59.7293 54.9744 60.4909C55.4973 61.2617 56.4516 61.6471 57.8463 61.6471C58.2501 61.6471 58.6722 61.6012 59.1218 61.5003C59.5714 61.3993 59.9384 61.2709 60.2137 61.1057L60.544 58.8026C60.2229 58.9219 59.9568 59.0045 59.7365 59.0595ZM88.2273 46.1584C87.9612 46.1125 87.6675 46.085 87.3465 46.085C86.2729 46.085 85.3553 46.3603 84.6121 46.9108C83.8596 47.4522 83.309 48.2321 82.9512 49.2231L82.7126 46.3786H79.9232V61.3443H83.1622V53.4165C83.1622 52.4347 83.3365 51.618 83.6853 50.9482C84.0339 50.2783 84.4835 49.7737 85.0433 49.4342C85.6029 49.0947 86.1719 48.9295 86.7499 48.9295C87.2087 48.9295 87.5758 48.9478 87.8419 49.0029C88.108 49.0488 88.3374 49.113 88.5118 49.1956L88.9338 46.4429C88.732 46.3053 88.5026 46.2043 88.2273 46.1584ZM104.459 48.535C103.982 47.7183 103.34 47.1035 102.551 46.6998C101.752 46.2869 100.844 46.085 99.8254 46.085C98.55 46.085 97.4306 46.4062 96.4671 47.0576C95.7606 47.544 95.21 48.2138 94.8154 49.0855L94.6779 46.3786H91.8333V61.3443H95.0632V53.3247C95.0632 52.2328 95.2467 51.3427 95.6138 50.6637C95.99 49.9847 96.4671 49.4892 97.0544 49.1772C97.6416 48.8745 98.2471 48.7184 98.862 48.7184C99.7429 48.7184 100.477 49.0029 101.064 49.5809C101.651 50.1682 101.945 51.1592 101.945 52.5814V61.3443H105.184V51.618C105.184 50.3792 104.936 49.3607 104.459 48.535ZM121.948 49.4525C121.416 48.4065 120.654 47.5807 119.663 46.9843C118.663 46.3786 117.452 46.085 116.039 46.085C114.663 46.085 113.433 46.397 112.341 47.0118C111.258 47.6265 110.405 48.5166 109.8 49.6728C109.185 50.8289 108.882 52.2328 108.882 53.8661C108.882 55.481 109.194 56.8757 109.809 58.041C110.433 59.2064 111.286 60.0964 112.387 60.7203C113.488 61.3351 114.764 61.6471 116.213 61.6471C117.195 61.6471 118.094 61.5094 118.911 61.225C119.728 60.9497 120.443 60.5368 121.049 60.0047C121.664 59.4633 122.132 58.821 122.471 58.0869L119.902 56.9491C119.562 57.6281 119.094 58.1603 118.489 58.5457C117.892 58.9402 117.14 59.133 116.213 59.133C115.36 59.133 114.608 58.9311 113.975 58.5365C113.332 58.1328 112.846 57.5456 112.506 56.7656C112.249 56.1875 112.093 55.4993 112.029 54.7011H122.655C122.673 54.5083 122.691 54.2606 122.71 53.9854C122.728 53.7101 122.746 53.3981 122.746 53.0586C122.746 51.7006 122.48 50.4985 121.948 49.4525ZM112.103 52.4897C112.167 51.9391 112.295 51.4437 112.479 51.0032C112.8 50.2233 113.259 49.6177 113.864 49.214C114.479 48.801 115.204 48.5992 116.039 48.5992C116.773 48.5992 117.415 48.7644 117.957 49.1039C118.489 49.4434 118.911 49.9388 119.195 50.5903C119.434 51.1225 119.572 51.7556 119.608 52.4897L112.103 52.4897ZM139.254 48.535C138.777 47.7183 138.143 47.1035 137.345 46.6998C136.547 46.2869 135.638 46.085 134.62 46.085C133.344 46.085 132.225 46.4062 131.262 47.0576C130.555 47.544 130.005 48.2138 129.61 49.0855L129.472 46.3786H126.628V61.3443H129.858V53.3247C129.858 52.2328 130.041 51.3427 130.417 50.6637C130.784 49.9847 131.262 49.4892 131.849 49.1772C132.436 48.8745 133.042 48.7184 133.656 48.7184C134.537 48.7184 135.271 49.0029 135.859 49.5809C136.446 50.1682 136.74 51.1592 136.74 52.5814V61.3443H139.978V51.618C139.978 50.3792 139.74 49.3607 139.254 48.535ZM148.384 46.6814C147.98 46.3053 147.438 46.1126 146.759 46.1126C146.08 46.1126 145.539 46.3053 145.135 46.6814C144.722 47.0576 144.521 47.5807 144.521 48.2413C144.521 48.8745 144.722 49.3883 145.135 49.7645C145.539 50.1407 146.08 50.3334 146.759 50.3334C147.438 50.3334 147.98 50.1407 148.384 49.7645C148.778 49.3883 148.98 48.8745 148.98 48.2413C148.98 47.5807 148.778 47.0576 148.384 46.6814ZM148.384 57.9492C147.98 57.5639 147.438 57.3712 146.759 57.3712C146.08 57.3712 145.539 57.5639 145.135 57.9492C144.722 58.3439 144.521 58.8668 144.521 59.5183C144.521 60.1423 144.722 60.6469 145.135 61.0323C145.539 61.4269 146.08 61.6195 146.759 61.6195C147.438 61.6195 147.98 61.4269 148.384 61.0323C148.778 60.6469 148.98 60.1423 148.98 59.5183C148.98 58.8668 148.778 58.3438 148.384 57.9492ZM163.514 39.7079V48.9662C163.202 48.2597 162.744 47.6724 162.156 47.1769C161.285 46.4521 160.211 46.085 158.936 46.085C157.743 46.085 156.651 46.3878 155.66 46.9935C154.678 47.6082 153.889 48.4891 153.311 49.6452C152.733 50.8014 152.439 52.2236 152.439 53.8936C152.439 55.5085 152.724 56.8941 153.283 58.0594C153.843 59.2155 154.595 60.0964 155.559 60.7204C156.513 61.3351 157.596 61.6471 158.789 61.6471C159.67 61.6471 160.477 61.4636 161.211 61.1057C161.954 60.7479 162.578 60.2341 163.083 59.5642C163.34 59.2247 163.551 58.8485 163.716 58.4448L163.881 61.3443H166.753V39.7079L163.514 39.7079ZM163.028 56.5913C162.698 57.3895 162.239 58.0044 161.643 58.4264C161.055 58.8577 160.376 59.0687 159.596 59.0687C158.376 59.0687 157.422 58.6099 156.724 57.6924C156.027 56.7748 155.678 55.4993 155.678 53.8661C155.678 52.2328 156.027 50.9482 156.743 50.0306C157.449 49.113 158.431 48.6543 159.688 48.6543C160.44 48.6543 161.11 48.8561 161.688 49.2598C162.266 49.6544 162.716 50.2325 163.037 50.9941C163.358 51.7465 163.514 52.6549 163.514 53.7192C163.514 54.8295 163.349 55.793 163.028 56.5913ZM171.589 46.3786V61.3443H174.828V46.3786H171.589ZM174.947 40.3777C174.562 40.029 174.021 39.8547 173.296 39.8547C172.58 39.8547 172.029 40.029 171.635 40.3777C171.25 40.7356 171.057 41.2311 171.057 41.8917C171.057 42.5524 171.25 43.057 171.635 43.4057C172.029 43.7544 172.58 43.9287 173.296 43.9287C174.021 43.9287 174.562 43.7544 174.947 43.4057C175.324 43.057 175.516 42.5524 175.516 41.8917C175.516 41.2311 175.323 40.7356 174.947 40.3777ZM195.4 46.3786V61.3443H198.639V46.3786H195.4ZM198.758 40.3777C198.373 40.029 197.832 39.8547 197.107 39.8547C196.391 39.8547 195.841 40.029 195.446 40.3777C195.061 40.7356 194.868 41.2311 194.868 41.8917C194.868 42.5524 195.061 43.057 195.446 43.4057C195.841 43.7544 196.391 43.9287 197.107 43.9287C197.832 43.9287 198.373 43.7544 198.758 43.4057C199.135 43.057 199.327 42.5524 199.327 41.8917C199.327 41.2311 199.135 40.7356 198.758 40.3777ZM228.736 59.2064C228.552 59.2339 228.387 59.2523 228.222 59.2523C227.506 59.2523 227.148 58.8577 227.148 58.0594V51.407C227.148 50.2325 226.891 49.2507 226.387 48.4524C225.873 47.6541 225.166 47.0576 224.258 46.6631C223.349 46.2777 222.312 46.085 221.129 46.085C219.376 46.085 217.963 46.4613 216.881 47.2045C215.807 47.9569 215.082 48.9478 214.724 50.1866L217.422 51.2327C217.697 50.2967 218.147 49.6177 218.752 49.1956C219.358 48.7735 220.101 48.5717 220.982 48.5717C221.9 48.5717 222.615 48.8469 223.138 49.4066C223.652 49.9664 223.918 50.7371 223.918 51.7098V52.3062L218.679 53.3889C217.321 53.6642 216.312 54.1689 215.642 54.8938C214.972 55.6278 214.633 56.527 214.633 57.6098C214.633 58.9403 215.091 59.9496 216 60.6286C216.908 61.3076 218.046 61.6471 219.422 61.6471C220.202 61.6471 220.964 61.5187 221.698 61.2618C222.441 60.9956 223.074 60.6011 223.597 60.0597C223.817 59.8395 224.001 59.5918 224.157 59.3256C224.221 59.656 224.331 59.9404 224.487 60.1973C224.763 60.6653 225.148 61.014 225.653 61.2434C226.148 61.4728 226.699 61.5829 227.295 61.5829C227.671 61.5829 228.011 61.5554 228.295 61.482C228.589 61.4085 228.837 61.326 229.029 61.225L229.213 59.1054C229.075 59.1422 228.91 59.1788 228.736 59.2064ZM223.918 55.8388C223.918 56.4353 223.808 56.9491 223.597 57.3804C223.395 57.8117 223.111 58.1695 222.762 58.4448C222.414 58.72 222.019 58.9311 221.579 59.0595C221.138 59.188 220.688 59.2523 220.23 59.2523C219.496 59.2523 218.917 59.0871 218.495 58.7476C218.083 58.408 217.872 57.9401 217.872 57.3345C217.872 56.7197 218.073 56.2518 218.486 55.9306C218.89 55.6094 219.505 55.3709 220.321 55.2149L223.918 54.435L223.918 55.8388ZM237.196 59.0595C236.975 59.1054 236.709 59.133 236.388 59.133C235.81 59.133 235.415 58.9678 235.204 58.6283C234.993 58.2888 234.893 57.775 234.893 57.0959V39.7079H231.663V57.3987C231.663 58.6925 231.92 59.7294 232.443 60.491C232.956 61.2617 233.911 61.6471 235.315 61.6471C235.709 61.6471 236.131 61.6012 236.581 61.5003C237.03 61.3993 237.398 61.2709 237.673 61.1057L238.003 58.8026C237.682 58.9219 237.416 59.0045 237.196 59.0595Z" fill="#202334"/>
<path d="M192.51 43.1763C192.464 43.1579 192.418 43.1488 192.372 43.1488H192.235C191.418 43.1488 190.721 43.3323 190.143 43.7085C189.565 44.0755 189.106 44.5802 188.785 45.2134C188.555 45.6538 188.408 46.1401 188.344 46.6539C187.427 46.2777 186.344 46.085 185.114 46.085C183.839 46.085 182.72 46.2961 181.765 46.7089C180.802 47.131 180.068 47.7183 179.545 48.4615C179.031 49.214 178.774 50.0948 178.774 51.1134C178.774 52.6457 179.315 53.8661 180.398 54.7745C180.618 54.958 180.866 55.1323 181.132 55.2699C180.627 55.4443 180.196 55.7012 179.848 56.0315C179.205 56.6463 178.893 57.3529 178.893 58.1786C178.893 59.0137 179.141 59.6743 179.655 60.1698C179.958 60.4635 180.325 60.6928 180.756 60.8672C179.985 61.0232 179.407 61.3076 178.994 61.7205C178.407 62.3077 178.113 63.0143 178.113 63.8309C178.113 64.9687 178.682 65.9139 179.829 66.6571C180.976 67.4095 182.756 67.7857 185.179 67.7857C186.61 67.7857 187.885 67.5838 188.987 67.1984C190.097 66.8131 190.969 66.2442 191.611 65.4918C192.244 64.7485 192.565 63.8401 192.565 62.7849C192.565 61.6104 192.152 60.6837 191.308 60.0047C190.473 59.3256 189.308 58.9861 187.812 58.9861H183.435C182.784 58.9861 182.27 58.8577 181.912 58.6099C181.554 58.3622 181.371 57.986 181.371 57.4905C181.371 57.0501 181.573 56.6647 181.958 56.3344C182.178 56.1508 182.463 56.004 182.83 55.9123C183.509 56.0682 184.27 56.1417 185.114 56.1417C186.39 56.1417 187.5 55.9398 188.454 55.5269C189.399 55.114 190.134 54.5359 190.666 53.7743C191.198 53.0219 191.464 52.1319 191.464 51.1134C191.464 50.0948 191.198 49.214 190.684 48.4616C190.436 48.1129 190.143 47.8009 189.803 47.5164C189.886 46.9751 190.115 46.553 190.473 46.2319C190.95 45.8098 191.647 45.6079 192.565 45.6079H192.758C192.831 45.6079 192.895 45.6171 192.96 45.6354L192.51 43.1763ZM182.747 61.6195H187.445C188.308 61.6195 188.932 61.7572 189.317 62.0325C189.711 62.3169 189.904 62.7023 189.904 63.207C189.904 63.6015 189.73 63.9777 189.381 64.3264C189.032 64.6751 188.509 64.9503 187.812 65.1522C187.106 65.345 186.243 65.4459 185.206 65.4459C183.811 65.4459 182.72 65.244 181.93 64.8494C181.141 64.4457 180.747 63.9318 180.747 63.2895C180.747 62.7757 180.939 62.3628 181.325 62.0692C181.719 61.7664 182.187 61.6195 182.747 61.6195ZM187.363 53.2054C186.757 53.7284 186.014 53.9854 185.114 53.9854C184.233 53.9854 183.49 53.7284 182.885 53.2054C182.279 52.6916 181.976 51.9942 181.976 51.1134C181.976 50.2325 182.27 49.5351 182.866 49.0213C183.472 48.4982 184.215 48.2413 185.114 48.2413C186.032 48.2413 186.784 48.4982 187.372 49.0213C187.959 49.5351 188.262 50.2325 188.262 51.1134C188.262 51.9942 187.959 52.6916 187.363 53.2054Z" fill="#202334"/>
<path d="M75.2436 49.4525C74.7206 48.4065 73.959 47.5806 72.9589 46.9842C71.9587 46.3786 70.7567 46.085 69.3344 46.085C67.958 46.085 66.7285 46.397 65.6365 47.0117C64.5538 47.6265 63.7097 48.5166 63.0949 49.6727C62.4893 50.8289 62.1865 52.2327 62.1865 53.866C62.1865 55.481 62.4893 56.8757 63.1132 58.041C63.7281 59.2063 64.5906 60.0964 65.6824 60.7203C66.7835 61.3351 68.059 61.6471 69.5179 61.6471C70.4905 61.6471 71.3897 61.5094 72.2065 61.225C73.0322 60.9497 73.7388 60.5368 74.3535 60.0046C74.9592 59.4632 75.4364 58.8209 75.7758 58.0869L73.1974 56.9491C72.8579 57.6281 72.39 58.1603 71.7935 58.5457C71.1971 58.9402 70.4355 59.1329 69.5179 59.1329C68.6554 59.1329 67.9122 58.931 67.2698 58.5365C66.6367 58.1327 66.1412 57.5455 65.8018 56.7656C65.5449 56.1875 65.3888 55.4993 65.3247 54.701H75.9501C75.9684 54.5083 75.9868 54.2606 76.0143 53.9853C76.0327 53.71 76.0419 53.3981 76.0419 53.0586C76.0419 51.7005 75.7758 50.4985 75.2436 49.4525ZM65.398 52.4897C65.4622 51.9391 65.5907 51.4436 65.7743 51.0032C66.0953 50.2232 66.5541 49.6177 67.169 49.2139C67.7745 48.801 68.4994 48.5992 69.3344 48.5992C70.0776 48.5992 70.7107 48.7643 71.2522 49.1038C71.7935 49.4433 72.2065 49.9388 72.4909 50.5903C72.7294 51.1225 72.8763 51.7556 72.913 52.4897L65.398 52.4897Z" fill="#202334"/>
</svg>
